<svg width="400" height="400" viewBox="0 0 400 400" fill="none" xmlns="http://www.w3.org/2000/svg">
  <rect width="400" height="400" rx="7" fill="#6B46C1"/>
  <rect x="100" y="100" width="200" height="200" rx="7" fill="#FBFAFF"/>
  <path d="M141 314C141 341.614 118.614 364 91 364C63.3858 364 41 341.614 41 314C41 286.386 63.3858 264 91 264C118.614 264 141 286.386 141 314Z" fill="white"/>
  <path d="M365 83C365 110.614 342.614 133 315 133C287.386 133 265 110.614 265 83C265 55.3858 287.386 33 315 33C342.614 33 365 55.3858 365 83Z" fill="white"/>
  </svg>
